<svg width="32" height="32" viewBox="0 0 32 32" fill="none" xmlns="http://www.w3.org/2000/svg">
<path d="M28 5.76471V26.2353C28 26.7033 27.8141 27.1522 27.4831 27.4831C27.1522 27.8141 26.7033 28 26.2353 28H5.76471C5.29668 28 4.84782 27.8141 4.51687 27.4831C4.18592 27.1522 4 26.7033 4 26.2353V5.76471C4 5.29668 4.18592 4.84782 4.51687 4.51687C4.84782 4.18592 5.29668 4 5.76471 4H26.2353C26.7033 4 27.1522 4.18592 27.4831 4.51687C27.8141 4.84782 28 5.29668 28 5.76471ZM11.0588 13.1765H7.52941V24.4706H11.0588V13.1765ZM11.3765 9.29412C11.3783 9.02715 11.3276 8.76242 11.2271 8.51506C11.1267 8.2677 10.9785 8.04255 10.791 7.85246C10.6036 7.66237 10.3805 7.51107 10.1346 7.4072C9.88861 7.30332 9.62462 7.24891 9.35765 7.24706H9.29412C8.7512 7.24706 8.23053 7.46273 7.84663 7.84663C7.46273 8.23053 7.24706 8.7512 7.24706 9.29412C7.24706 9.83703 7.46273 10.3577 7.84663 10.7416C8.23053 11.1255 8.7512 11.3412 9.29412 11.3412C9.56111 11.3477 9.82678 11.3016 10.0759 11.2055C10.3251 11.1094 10.5529 10.9651 10.7463 10.7809C10.9396 10.5967 11.0948 10.3762 11.203 10.132C11.3111 9.88775 11.3701 9.62464 11.3765 9.35765V9.29412ZM24.4706 17.6094C24.4706 14.2141 22.3106 12.8941 20.1647 12.8941C19.4621 12.8589 18.7626 13.0086 18.1358 13.3281C17.5091 13.6477 16.9771 14.126 16.5929 14.7153H16.4941V13.1765H13.1765V24.4706H16.7059V18.4635C16.6549 17.8483 16.8487 17.2378 17.2452 16.7646C17.6417 16.2915 18.2089 15.9939 18.8235 15.9365H18.9576C20.08 15.9365 20.9129 16.6424 20.9129 18.4212V24.4706H24.4424L24.4706 17.6094Z" fill="black"/>
</svg>
