<svg width="32" height="32" viewBox="0 0 32 32" fill="none" xmlns="http://www.w3.org/2000/svg">
<path fill-rule="evenodd" clip-rule="evenodd" d="M16 4C12.7408 4 12.3328 4.0136 11.0528 4.072C9.7752 4.1304 8.9024 4.3336 8.1392 4.6304C7.3392 4.9312 6.6136 5.4032 6.0136 6.0144C5.40338 6.61371 4.93109 7.3388 4.6296 8.1392C4.3344 8.9024 4.1304 9.776 4.072 11.0536C4.0144 12.3328 4 12.74 4 16C4 19.26 4.0136 19.6672 4.072 20.9472C4.1304 22.2248 4.3336 23.0976 4.6304 23.8608C4.9312 24.6608 5.4032 25.3864 6.0144 25.9864C6.61372 26.5966 7.33881 27.0689 8.1392 27.3704C8.9024 27.6664 9.7752 27.8696 11.0528 27.928C12.3328 27.9864 12.7408 28 16 28C19.2592 28 19.6672 27.9864 20.9472 27.928C22.2248 27.8696 23.0976 27.6664 23.8608 27.3696C24.6608 27.0688 25.3864 26.5968 25.9864 25.9856C26.5966 25.3863 27.0689 24.6612 27.3704 23.8608C27.6664 23.0976 27.8696 22.2248 27.928 20.9472C27.9864 19.6672 28 19.2592 28 16C28 12.7408 27.9864 12.3328 27.928 11.0528C27.8696 9.7752 27.6664 8.9024 27.3696 8.1392C27.0683 7.33845 26.596 6.61306 25.9856 6.0136C25.3863 5.40338 24.6612 4.93109 23.8608 4.6296C23.0976 4.3344 22.224 4.1304 20.9464 4.072C19.6672 4.0144 19.26 4 16 4ZM16 6.1624C19.204 6.1624 19.584 6.1744 20.8496 6.232C22.0192 6.2856 22.6544 6.48 23.0776 6.6456C23.6376 6.8624 24.0376 7.1232 24.4576 7.5424C24.8776 7.9624 25.1376 8.3624 25.3544 8.9224C25.5192 9.3456 25.7144 9.9808 25.768 11.1504C25.8256 12.416 25.8376 12.796 25.8376 16C25.8376 19.204 25.8256 19.584 25.768 20.8496C25.7144 22.0192 25.52 22.6544 25.3544 23.0776C25.1623 23.5988 24.8559 24.0704 24.4576 24.4576C24.0705 24.856 23.5989 25.1624 23.0776 25.3544C22.6544 25.5192 22.0192 25.7144 20.8496 25.768C19.584 25.8256 19.2048 25.8376 16 25.8376C12.7952 25.8376 12.416 25.8256 11.1504 25.768C9.9808 25.7144 9.3456 25.52 8.9224 25.3544C8.40116 25.1623 7.92961 24.8559 7.5424 24.4576C7.14414 24.0704 6.8377 23.5988 6.6456 23.0776C6.4808 22.6544 6.2856 22.0192 6.232 20.8496C6.1744 19.584 6.1624 19.204 6.1624 16C6.1624 12.796 6.1744 12.416 6.232 11.1504C6.2856 9.9808 6.48 9.3456 6.6456 8.9224C6.8624 8.3624 7.1232 7.9624 7.5424 7.5424C7.92955 7.14404 8.40113 6.83758 8.9224 6.6456C9.3456 6.4808 9.9808 6.2856 11.1504 6.232C12.416 6.1744 12.796 6.1624 16 6.1624V6.1624Z" fill="black"/>
<path fill-rule="evenodd" clip-rule="evenodd" d="M16 20.004C15.4742 20.004 14.9536 19.9004 14.4678 19.6992C13.982 19.498 13.5406 19.203 13.1688 18.8312C12.797 18.4594 12.502 18.018 12.3008 17.5322C12.0996 17.0464 11.996 16.5258 11.996 16C11.996 15.4742 12.0996 14.9535 12.3008 14.4677C12.502 13.9819 12.797 13.5405 13.1688 13.1687C13.5406 12.7969 13.982 12.502 14.4678 12.3007C14.9536 12.0995 15.4742 11.996 16 11.996C17.062 11.996 18.0804 12.4178 18.8313 13.1687C19.5822 13.9196 20.004 14.938 20.004 16C20.004 17.0619 19.5822 18.0803 18.8313 18.8312C18.0804 19.5821 17.062 20.004 16 20.004V20.004ZM16 9.83196C14.3642 9.83196 12.7953 10.4818 11.6386 11.6385C10.4819 12.7953 9.83203 14.3641 9.83203 16C9.83203 17.6358 10.4819 19.2047 11.6386 20.3614C12.7953 21.5181 14.3642 22.168 16 22.168C17.6359 22.168 19.2047 21.5181 20.3615 20.3614C21.5182 19.2047 22.168 17.6358 22.168 16C22.168 14.3641 21.5182 12.7953 20.3615 11.6385C19.2047 10.4818 17.6359 9.83196 16 9.83196V9.83196ZM23.9624 9.71996C23.9624 10.1066 23.8088 10.4775 23.5354 10.7509C23.262 11.0244 22.8911 11.178 22.5044 11.178C22.1177 11.178 21.7469 11.0244 21.4735 10.7509C21.2 10.4775 21.0464 10.1066 21.0464 9.71996C21.0464 9.33328 21.2 8.96243 21.4735 8.689C21.7469 8.41557 22.1177 8.26196 22.5044 8.26196C22.8911 8.26196 23.262 8.41557 23.5354 8.689C23.8088 8.96243 23.9624 9.33328 23.9624 9.71996" fill="black"/>
</svg>
