<svg width="32" height="32" viewBox="0 0 32 32" fill="none" xmlns="http://www.w3.org/2000/svg">
<path d="M28.8332 16.0808C28.8332 22.326 24.4315 27.5321 18.5834 28.7344V20.4582H21.1901H21.6196L21.6844 20.0335L22.2755 16.1562L22.3632 15.5808H21.7812H18.5834V13.5653C18.5834 13.1064 18.6958 12.715 18.9276 12.4449C19.1472 12.189 19.5367 11.9693 20.2549 11.9693H21.9376H22.4376V11.4693V8.16796V7.7465L22.0222 7.67517L21.9376 8.16796L22.0221 7.67516L22.022 7.67513L22.0216 7.67507L22.0205 7.67488L22.0166 7.67421L22.0022 7.6718L21.9485 7.66303C21.902 7.65556 21.8347 7.645 21.7495 7.63239C21.5793 7.60717 21.3376 7.57367 21.0496 7.54019C20.4757 7.47349 19.7084 7.40574 18.9527 7.40574C17.3277 7.40574 15.9295 7.90324 14.9374 8.90257C13.9451 9.90201 13.4163 11.3455 13.4163 13.1253V15.58H10.5314H10.0314V16.08V19.9591V20.4591H10.5314H13.4163V28.7344C7.5682 27.5321 3.1665 22.326 3.1665 16.0808C3.1665 8.94524 8.91439 3.16663 15.9998 3.16663C23.0853 3.16663 28.8332 8.94524 28.8332 16.0808Z" fill="white" stroke="white"/>
</svg>
