<svg width="32" height="32" viewBox="0 0 32 32" fill="none" xmlns="http://www.w3.org/2000/svg">
<path fill-rule="evenodd" clip-rule="evenodd" d="M21.2915 22.9918C24.6328 22.5928 27.542 20.5341 27.9076 18.653C28.4838 15.6898 28.4362 11.4217 28.4362 11.4217C28.4362 5.6369 24.6461 3.94129 24.6461 3.94129C22.7352 3.06359 19.4537 2.6945 16.0445 2.66663H15.9607C12.5515 2.6945 9.27221 3.06359 7.36109 3.94129C7.36109 3.94129 3.57087 5.6369 3.57087 11.4217C3.57087 11.7724 3.56906 12.1413 3.56717 12.5253C3.56193 13.5917 3.55612 14.7749 3.58696 16.0099C3.7246 21.6671 4.62413 27.2426 9.85466 28.627C12.2663 29.2654 14.3369 29.399 16.0045 29.3073C19.0287 29.1397 20.7263 28.2281 20.7263 28.2281L20.6266 26.0339C20.6266 26.0339 18.4655 26.7153 16.0385 26.6323C13.6338 26.5498 11.0953 26.373 10.7063 23.4206C10.6704 23.1613 10.6525 22.884 10.6525 22.5928C10.6525 22.5928 13.013 23.1698 16.0045 23.3068C17.8338 23.3908 19.5492 23.1997 21.2915 22.9918ZM23.9656 18.8749V11.8705C23.9656 10.4389 23.6011 9.30134 22.8691 8.4597C22.1139 7.61807 21.1252 7.18663 19.8979 7.18663C18.4777 7.18663 17.4023 7.73244 16.6914 8.8242L16.0001 9.98292L15.3089 8.8242C14.5979 7.73244 13.5225 7.18663 12.1024 7.18663C10.875 7.18663 9.88627 7.61807 9.13127 8.4597C8.39912 9.30134 8.03462 10.4389 8.03462 11.8705V18.8749H10.8096V12.0764C10.8096 10.6432 11.4126 9.91582 12.6188 9.91582C13.9523 9.91582 14.6208 10.7787 14.6208 12.485V16.2062H17.3795V12.485C17.3795 10.7787 18.0478 9.91582 19.3814 9.91582C20.5875 9.91582 21.1905 10.6432 21.1905 12.0764V18.8749H23.9656Z" fill="white"/>
</svg>
