<svg width="32" height="32" viewBox="0 0 32 32" fill="none" xmlns="http://www.w3.org/2000/svg">
<path fill-rule="evenodd" clip-rule="evenodd" d="M29.3332 16C29.3332 23.3638 23.3636 29.3333 15.9998 29.3333C8.63604 29.3333 2.6665 23.3638 2.6665 16C2.6665 8.63616 8.63604 2.66663 15.9998 2.66663C23.3636 2.66663 29.3332 8.63616 29.3332 16ZM16.4776 12.5099C15.1808 13.0493 12.5889 14.1657 8.70192 15.8592C8.07074 16.1102 7.7401 16.3558 7.71 16.5959C7.65913 17.0016 8.16727 17.1614 8.85923 17.379C8.95335 17.4086 9.05087 17.4393 9.15085 17.4718C9.83163 17.6931 10.7474 17.952 11.2235 17.9622C11.6553 17.9716 12.1373 17.7935 12.6694 17.4281C16.3011 14.9766 18.1758 13.7375 18.2935 13.7108C18.3765 13.692 18.4916 13.6683 18.5696 13.7376C18.6475 13.8069 18.6398 13.9381 18.6316 13.9733C18.5813 14.1879 16.5866 16.0423 15.5544 17.002C15.2326 17.3011 15.0043 17.5133 14.9577 17.5618C14.8531 17.6704 14.7466 17.7731 14.6442 17.8718C14.0118 18.4815 13.5375 18.9387 14.6705 19.6853C15.215 20.0441 15.6506 20.3408 16.0853 20.6368C16.56 20.9601 17.0335 21.2825 17.646 21.6841C17.8021 21.7864 17.9512 21.8926 18.0964 21.9961C18.6488 22.39 19.1451 22.7438 19.7582 22.6874C20.1145 22.6546 20.4825 22.3196 20.6695 21.3204C21.1112 18.959 21.9794 13.8427 22.1801 11.7344C22.1976 11.5497 22.1755 11.3133 22.1578 11.2095C22.14 11.1057 22.1029 10.9579 21.968 10.8484C21.8082 10.7188 21.5616 10.6915 21.4513 10.6934C20.9498 10.7022 20.1804 10.9698 16.4776 12.5099Z" fill="white"/>
</svg>
