<svg width="32" height="32" viewBox="0 0 32 32" fill="none" xmlns="http://www.w3.org/2000/svg">
<path fill-rule="evenodd" clip-rule="evenodd" d="M26.3892 7.21961C27.536 7.52769 28.4431 8.43485 28.7512 9.58161C29.3161 11.6698 29.3332 16.0001 29.3332 16.0001C29.3332 16.0001 29.3332 20.3476 28.7683 22.4186C28.4603 23.5654 27.5531 24.4725 26.4063 24.7806C24.3353 25.3454 15.9998 25.3454 15.9998 25.3454C15.9998 25.3454 7.66436 25.3454 5.59333 24.7806C4.44656 24.4725 3.53942 23.5654 3.23133 22.4186C2.6665 20.3304 2.6665 16.0001 2.6665 16.0001C2.6665 16.0001 2.6665 11.6698 3.21421 9.59873C3.5223 8.45196 4.42945 7.54482 5.57622 7.23673C7.64725 6.6719 15.9827 6.65479 15.9827 6.65479C15.9827 6.65479 24.3182 6.65479 26.3892 7.21961ZM20.2446 16.0001L13.3297 20.0052V11.995L20.2446 16.0001Z" fill="white"/>
</svg>
